<?xml version="1.0" encoding="UTF-8" standalone="no"?>
<svg
   viewBox="0 0 32 32"
   version="1.1"
   id="svg19"
   sodipodi:docname="favicon.svg"
   inkscape:version="1.4.3 (0d15f75, 2025-12-25)"
   xmlns:inkscape="http://www.inkscape.org/namespaces/inkscape"
   xmlns:sodipodi="http://sodipodi.sourceforge.net/DTD/sodipodi-0.dtd"
   xmlns="http://www.w3.org/2000/svg"
   xmlns:svg="http://www.w3.org/2000/svg">
  <sodipodi:namedview
     id="namedview19"
     pagecolor="#ffffff"
     bordercolor="#000000"
     borderopacity="0.25"
     inkscape:showpageshadow="2"
     inkscape:pageopacity="0.0"
     inkscape:pagecheckerboard="0"
     inkscape:deskcolor="#d1d1d1"
     inkscape:zoom="25.21875"
     inkscape:cx="15.980173"
     inkscape:cy="16"
     inkscape:window-width="1920"
     inkscape:window-height="1009"
     inkscape:window-x="1912"
     inkscape:window-y="-8"
     inkscape:window-maximized="1"
     inkscape:current-layer="svg19" />
  <defs
     id="defs2">
    <linearGradient
       id="bg"
       x1="0"
       y1="0"
       x2="0"
       y2="32"
       gradientUnits="userSpaceOnUse">
      <stop
         offset="0"
         stop-color="#0f172a"
         id="stop1" />
      <stop
         offset="1"
         stop-color="#1a2540"
         id="stop2" />
    </linearGradient>
  </defs>
  <rect
     width="32"
     height="32"
     rx="6"
     fill="url(#bg)"
     id="rect2" />
  <svg
     x="2"
     y="1"
     width="30"
     height="30"
     viewBox="0 0 65 43.5"
     version="1.1"
     id="svg18">
    <defs
       id="defs14">
      <linearGradient
         id="flg20">
        <stop
           offset="0"
           stop-color="#33c5e2"
           stop-opacity="1"
           id="stop3" />
        <stop
           offset="0.64156628"
           stop-color="#00c986"
           stop-opacity="0.745"
           id="stop4" />
      </linearGradient>
      <linearGradient
         id="flg17">
        <stop
           offset="0"
           stop-color="#338ae2"
           stop-opacity="1"
           id="stop5" />
        <stop
           offset="1"
           stop-color="#33c5e2"
           stop-opacity="1"
           id="stop6" />
      </linearGradient>
      <linearGradient
         id="flg15">
        <stop
           offset="0.31626511"
           stop-color="#33c5e2"
           stop-opacity="1"
           id="stop7" />
        <stop
           offset="1"
           stop-color="#33c5e2"
           stop-opacity="1"
           id="stop8" />
      </linearGradient>
      <linearGradient
         id="flg11">
        <stop
           offset="0"
           stop-color="#338ae2"
           stop-opacity="1"
           id="stop9" />
        <stop
           offset="0.5"
           stop-color="#00c986"
           stop-opacity="0.745"
           id="stop10" />
        <stop
           offset="1"
           stop-color="#86c900"
           stop-opacity="0.745"
           id="stop11" />
      </linearGradient>
      <linearGradient
         id="flg9">
        <stop
           offset="0"
           stop-color="#338ae2"
           stop-opacity="1"
           id="stop12" />
        <stop
           offset="0.51999998"
           stop-color="#00c986"
           stop-opacity="0.745"
           id="stop13" />
        <stop
           offset="1"
           stop-color="#86c900"
           stop-opacity="0.745"
           id="stop14" />
      </linearGradient>
      <linearGradient
         href="#flg15"
         id="flg16"
         x1="23.38343"
         y1="27.351295"
         x2="23.38343"
         y2="3.477263"
         gradientUnits="userSpaceOnUse"
         gradientTransform="matrix(1.0246769,0,0,1.3686679,0.02673692,-7.3648549)" />
      <linearGradient
         href="#flg11"
         id="flg13"
         x1="23.550648"
         y1="32.218906"
         x2="23.963383"
         y2="8.5732975"
         gradientUnits="userSpaceOnUse"
         gradientTransform="matrix(1.0246769,0,0,1.3686679,0.02673692,-7.3648549)" />
      <linearGradient
         href="#flg17"
         id="flg18"
         x1="17.930822"
         y1="34.116711"
         x2="7.7643032"
         y2="21.150471"
         gradientUnits="userSpaceOnUse"
         gradientTransform="matrix(1.0246769,0,0,1.3686679,0.02673692,-7.3648549)" />
      <linearGradient
         href="#flg20"
         id="flg19"
         x1="49.939888"
         y1="17.591705"
         x2="54.216488"
         y2="2.673692"
         gradientUnits="userSpaceOnUse"
         gradientTransform="matrix(1.0246769,0,0,1.3686679,0.02673692,-7.3648549)" />
      <linearGradient
         href="#flg9"
         id="flg10"
         x1="31.953989"
         y1="33.20388"
         x2="49.106392"
         y2="4.6574922"
         gradientUnits="userSpaceOnUse"
         gradientTransform="matrix(1.0246769,0,0,1.3686679,0.02673692,-7.3648549)" />
    </defs>
    <path
       fill="url(#flg16)"
       d="m 6.3537202,26.228789 c 0,0.64947 -0.069438,1.733164 0.062454,2.335724 0.16168,0.738645 2.1084132,1.133332 2.7322242,1.291445 V 7.9795973 C 12.288152,7.9772973 16.57135,8.0037273 17.76541,4.012381 18.132023,2.7869176 17.946468,1.3202663 17.946468,0.04516581 H 39.372351 V 27.248931 c 0.666062,-0.210131 2.204069,-0.864204 2.584793,-1.517794 0.264306,-0.453735 0.106381,-1.363623 0.106381,-1.882679 V 19.314499 -2.7885598 h -17.18211 c -2.798377,0 -5.699578,-0.2445194 -8.487548,0.00657 -0.661315,0.05955 -1.096088,0.6535978 -1.5526,1.1168725 -0.850868,0.86348141 -1.712419,1.73642591 -2.587668,2.56899231 C 10.921123,2.1713681 9.6368394,3.4997066 8.3203464,4.787036 7.6935614,5.3999374 6.7832274,6.0802233 6.4581856,6.9594723"
       id="path14"
       style="fill:url(#flg16);stroke-width:1.18424" />
    <path
       fill="url(#flg13)"
       d="m 35.646111,5.1458837 c -1.817492,0.5885193 -4.413201,0.680094 -6.313908,0.680094 v 0.1133554 l 2.380654,1.8135852 c -0.839806,1.305427 -2.155505,2.4024087 -3.312214,3.3580507 -2.921779,2.413897 -6.299872,4.218013 -9.729629,5.59049 -1.489064,0.595873 -3.017379,1.124319 -4.554293,1.550498 -0.563672,0.156305 -0.815125,0.220856 -1.863121,0.722513 1.714594,-0.448265 3.540524,-0.511249 5.278841,-0.884576 2.960682,-0.635849 5.95559,-1.74039 8.694562,-3.117623 1.637922,-0.823597 3.239601,-1.82701 4.657801,-3.049317 0.653959,-0.563628 1.508622,-1.833848 2.277148,-2.1165467 0.603448,-0.221976 2.07081,1.3173777 2.587667,1.6870287 l -0.106063,-4.3072637 0.0025,-2.0402828 M 30.367257,15.233937 v 5.440752 11.901648 c 1.549012,-0.61731 3.109468,-1.339402 4.537628,-2.252389 0.390626,-0.249715 1.413609,-0.733707 1.499727,-1.327949 0.11898,-0.820987 0.07305,-2.716992 0.07305,-3.629475 0,-3.36887 -0.0034,-6.757907 -0.0034,-10.132587 h -6.10692 m -8.901575,4.193915 v 15.755509 c 0.883445,0.142876 1.693668,0.695599 2.587668,0.772024 0.961444,-0.413786 3.530948,-1.180837 3.528851,-1.959045 -0.01659,-4.856127 -0.0096,-9.712326 -0.0096,-14.568488 h -6.106952 m -9.005081,3.28712 v 8.727876 l 6.106894,2.493673 V 22.714972 h -6.106894"
       id="path15"
       style="fill:url(#flg13);stroke-width:1.18424" />
    <path
       fill="url(#flg18)"
       d="m 26.641033,37.139582 c -0.675838,0.382954 -1.39503,0.99828 -2.144091,1.187376 C 23.96248,38.461908 23.297229,37.99511 22.811285,37.796064 21.420546,37.226411 20.05112,36.598603 18.671018,35.999895 15.00903,34.411225 11.352191,32.807682 7.6993104,31.193391 6.0688219,30.472857 4.2657564,29.691551 2.523973,28.949166 l 3.8886708,-2.736118 -0.011355,-3.194806 c 0,0 -4.391958,2.7788 -5.258842,4.023331 -0.59657578,0.856468 -0.48670558,2.15863 -0.48670558,3.186002 0,0.761704 0.1800339,2.146487 0.60455308,2.803572 0.6107934,0.945421 1.7901768,1.303817 2.7127728,1.73102 2.3923742,1.107783 4.8100273,2.231707 7.2454669,3.218805 3.024641,1.225915 6.037996,2.602439 9.005081,3.986368 1.288131,0.600819 3.02659,1.791189 4.450787,1.791189 0.731444,0 1.43809,-0.493376 2.070135,-0.839444 M 55.6229,27.362278 c -2.551531,2.794182 -6.035487,4.354669 -9.212096,6.150143 -4.580857,2.58919 -9.181807,5.260695 -13.662881,8.050313 -1.846711,1.149641 -3.734494,2.218981 -5.589359,3.352814 -0.888045,0.542827 -1.825052,1.363426 -2.898189,1.2429 C 22.462777,45.956556 20.558014,44.659769 18.878028,43.95934 14.859206,42.28379 10.873233,40.509599 6.8712534,38.787527 4.9723764,37.970434 2.8914871,36.648764 0.86786602,36.316849 c 0,1.257627 -0.359549,3.32756 0.29798108,4.41895 0.5985073,0.99342 2.0433918,1.38564 3.0142327,1.779119 2.2940055,0.929776 4.5612746,1.963065 6.8314402,2.96055 2.822992,1.240383 5.663336,2.435326 8.487548,3.672466 1.513487,0.662982 3.202465,1.689935 4.864813,1.677055 2.136768,-0.01658 4.306754,-1.787042 6.106895,-2.898441 2.971727,-1.834727 6.00439,-3.563122 9.005081,-5.340515 1.160543,-0.687427 2.689498,-1.272396 3.693336,-2.209605 0.675934,-0.63108 0.39232,-2.008984 1.276584,-2.723348 0.514434,-0.415597 1.214999,-0.695626 1.861522,-0.599025 0.481264,0.07186 0.95949,0.446364 1.449094,0.279084 0.932267,-0.318501 1.825147,-1.063015 2.691174,-1.553738 1.57631,-0.89318 4.390018,-1.986704 5.137313,-3.883157 0.298569,-0.757681 0.141527,-1.797438 0.141527,-2.607031 0,-0.606444 0.11232,-1.363703 -0.103507,-1.926935 M 28.297136,51.16557 c 0.810313,0.372359 2.024028,0.226691 2.898188,0.226691 1.387139,0 2.788418,0.0991 4.140265,-0.311179 1.303339,-0.395545 2.444376,-1.222838 3.622735,-1.920803 3.544671,-2.09962 7.097173,-4.184976 10.661189,-6.244342 1.552426,-0.897039 3.176032,-2.175389 4.847245,-2.773115 0.401625,-0.143654 0.806049,0.308184 1.156142,0.476394 0.651061,0.312823 1.366113,0.43228 2.070134,0.292292 1.796128,-0.357167 2.82652,-2.415329 2.050568,-4.254613 -0.679497,-1.610635 -2.737266,-2.210399 -4.120702,-1.355201 -0.698266,0.431651 -1.094124,1.206495 -1.76113,1.655365 -0.893584,0.60135 -1.866459,1.066135 -2.793164,1.601942 -0.73229,0.423385 -1.84413,0.821913 -2.432489,1.457263 -0.605777,0.654154 -0.662881,1.583808 -1.501162,2.07579 -1.179241,0.692079 -2.201071,-0.467826 -3.20831,0.03599 -5.350018,2.675828 -10.299253,6.312285 -15.629509,9.037575 M 56.864981,36.355855 c 1.844963,-0.36531 2.409626,2.720955 0.517534,3.095764 -1.921211,0.380572 -2.444146,-2.714288 -0.517534,-3.095764 z"
       id="path16"
       style="fill:url(#flg18);stroke-width:1.18424" />
    <path
       fill="url(#flg19)"
       d="m 49.308988,21.014734 c 0.567126,-0.196535 1.585405,-0.9814 2.067258,-1.291095 0.08281,-0.05323 0.02836,-3.191479 0.0045,-4.263007 -0.0667,-2.980918 -0.0016,-5.9726637 -0.0016,-8.9545717 0,-1.1450582 -0.301411,-2.8916111 0.06245,-3.9671298 0.277032,-0.8188463 2.266527,-2.61066539 3.042747,-2.81317089 0.446467,-0.1164735 0.992239,0.1639324 1.449092,0.1766691 1.099202,0.030645 2.167653,-0.7233654 2.652044,-1.78419531 1.418908,-3.1074608 -2.235794,-6.0142501 -4.61452,-3.907222 -0.559602,0.4956877 -0.934764,1.3133252 -1.020126,2.093637 -0.05066,0.4630889 0.09122,0.9503358 -0.164768,1.3601015 -0.8178,1.3091143 -2.849586,1.95339961 -3.414602,3.4329175 -0.188445,0.4934569 -0.06246,1.2542214 -0.06246,1.7812245 V 6.9594563 21.014734 m 6.417461,-25.8017758 c 1.801537,-0.2666302 2.273843,2.7424309 0.414026,2.9967501 -1.771655,0.2422637 -2.17512,-2.7361124 -0.414026,-2.9967501"
       id="path17"
       style="fill:url(#flg19);stroke-width:1.18424" />
    <path
       fill="url(#flg10)"
       d="m 44.754698,24.075157 c 0.600171,-0.240624 2.363523,-1.01538 2.554762,-1.724373 0.16824,-0.623723 0.0329,-1.481485 0.0329,-2.129493 V 15.573982 4.5791265 c 0,-1.6064643 0.31226,-3.67370349 -0.103507,-5.21405449 1.054292,-0.50464311 1.957201,-1.52047101 2.030917,-2.83372561 0.125119,-2.228999 -2.172771,-3.7526528 -3.997543,-2.8866436 -1.419478,0.6736601 -2.005654,2.5029046 -1.394385,4.0201346 0.194424,0.482577 0.646007,0.8029099 0.815913,1.2705399 0.224092,0.61677931 0.06094,1.58578671 0.06094,2.2432782 V 24.075157 m 1.449089,-29.205048 c 1.735425,-0.2935075 2.14387,2.6051624 0.414029,2.9569607 -1.797614,0.3655821 -2.219583,-2.6515889 -0.414029,-2.9569607 m 9.626129,14.2429723 c 0.478661,-0.02287 0.915143,-0.133104 1.345588,-0.371448 3.309609,-1.832588 0.311265,-7.291965 -2.794681,-5.183268 -1.706894,1.1588483 -1.029924,2.597946 -1.089776,4.307875 -0.101515,2.9000887 -0.07993,5.8235237 -0.0484,8.7278737 0.01399,1.289398 0.314299,3.008484 -0.274579,4.193914 -0.55365,1.114523 -1.740623,1.689595 -2.727512,2.239341 -1.433329,0.798436 -2.845531,1.682598 -4.243774,2.553157 -4.750057,2.957407 -9.58213,5.771357 -14.387429,8.617666 -1.655015,0.980308 -3.297192,1.99449 -4.968322,2.94139 -0.675837,0.382954 -2.144089,1.187376 -2.144089,1.187376 l -0.0024,2.541133 0.563159,2.823657 c 0,0 1.054767,-0.426595 1.686812,-0.772663 1.386468,-0.759145 2.789923,-1.526695 4.140267,-2.360199 4.153743,-2.563928 8.433918,-4.896658 12.627816,-7.380803 2.400221,-1.42173 4.804993,-2.863787 7.245468,-4.200918 1.669405,-0.914662 3.634389,-1.840252 4.6455,-3.655158 0.765226,-1.373538 0.426327,-3.441246 0.426327,-4.987356 V 9.1130993 m 0,-4.4788595 c 1.742107,-0.046619 1.747087,2.8480735 0,2.8849805 -1.72898,0.03652 -1.695238,-2.8396245 0,-2.8849805"
       id="path18"
       style="fill:url(#flg10);stroke-width:1.18424" />
  </svg>
</svg>
